<svg width="451" height="299" viewBox="0 0 451 299" fill="none" xmlns="http://www.w3.org/2000/svg">
<path d="M233.46 9.17999C233.46 7.01052 232.598 4.92991 231.064 3.39586C229.53 1.86181 227.45 1 225.28 1C223.111 1 221.03 1.86181 219.496 3.39586C217.962 4.92991 217.1 7.01052 217.1 9.17999C217.1 11.3495 217.962 13.4301 219.496 14.9641C221.03 16.4982 223.111 17.36 225.28 17.36C227.45 17.36 229.53 16.4982 231.064 14.9641C232.598 13.4301 233.46 11.3495 233.46 9.17999Z" stroke="#94D6F1" stroke-width="2"/>
<path d="M195.72 14.3199C195.72 13.2523 195.51 12.1951 195.101 11.2087C194.693 10.2223 194.094 9.32609 193.339 8.57115C192.584 7.81621 191.688 7.21736 190.701 6.80879C189.715 6.40022 188.658 6.18994 187.59 6.18994C185.434 6.18994 183.366 7.04648 181.841 8.57115C180.317 10.0958 179.46 12.1637 179.46 14.3199C179.46 16.4761 180.317 18.544 181.841 20.0687C183.366 21.5934 185.434 22.4499 187.59 22.4499C188.658 22.4499 189.715 22.2397 190.701 21.8311C191.688 21.4225 192.584 20.8237 193.339 20.0687C194.094 19.3138 194.693 18.4175 195.101 17.4312C195.51 16.4448 195.72 15.3876 195.72 14.3199Z" stroke="#94D6F1" stroke-width="2"/>
<path d="M271.14 14.35C271.14 12.1991 270.285 10.1363 268.765 8.61534C267.244 7.09442 265.181 6.23999 263.03 6.23999C260.879 6.23999 258.816 7.09442 257.295 8.61534C255.774 10.1363 254.92 12.1991 254.92 14.35C254.92 16.5009 255.774 18.5637 257.295 20.0846C258.816 21.6055 260.879 22.46 263.03 22.46C265.181 22.46 267.244 21.6055 268.765 20.0846C270.285 18.5637 271.14 16.5009 271.14 14.35Z" stroke="#94D6F1" stroke-width="2"/>
<path d="M160.72 29.5699C160.72 27.4084 159.861 25.3354 158.333 23.807C156.804 22.2786 154.731 21.4199 152.57 21.4199C150.408 21.4199 148.335 22.2786 146.807 23.807C145.279 25.3354 144.42 27.4084 144.42 29.5699C144.42 31.7314 145.279 33.8044 146.807 35.3329C148.335 36.8613 150.408 37.7199 152.57 37.7199C154.731 37.7199 156.804 36.8613 158.333 35.3329C159.861 33.8044 160.72 31.7314 160.72 29.5699Z" stroke="#94D6F1" stroke-width="2"/>
<path d="M306.15 29.6199C306.15 27.4505 305.288 25.3698 303.754 23.8358C302.22 22.3018 300.14 21.4399 297.97 21.4399C295.801 21.4399 293.72 22.3018 292.186 23.8358C290.652 25.3698 289.79 27.4505 289.79 29.6199C289.79 31.7894 290.652 33.87 292.186 35.4041C293.72 36.9381 295.801 37.7999 297.97 37.7999C300.14 37.7999 302.22 36.9381 303.754 35.4041C305.288 33.87 306.15 31.7894 306.15 29.6199Z" stroke="#94D6F1" stroke-width="2"/>
<path d="M131.19 53.66C131.19 51.5091 130.336 49.4463 128.815 47.9254C127.294 46.4045 125.231 45.55 123.08 45.55C120.929 45.55 118.866 46.4045 117.345 47.9254C115.824 49.4463 114.97 51.5091 114.97 53.66C114.97 55.8109 115.824 57.8738 117.345 59.3947C118.866 60.9156 120.929 61.7701 123.08 61.7701C125.231 61.7701 127.294 60.9156 128.815 59.3947C130.336 57.8738 131.19 55.8109 131.19 53.66Z" stroke="#94D6F1" stroke-width="2"/>
<path d="M335.56 53.6801C335.56 51.5425 334.711 49.4924 333.199 47.9808C331.688 46.4693 329.638 45.6201 327.5 45.6201C325.362 45.6201 323.312 46.4693 321.801 47.9808C320.289 49.4924 319.44 51.5425 319.44 53.6801C319.44 55.8178 320.289 57.8679 321.801 59.3794C323.312 60.8909 325.362 61.7401 327.5 61.7401C329.638 61.7401 331.688 60.8909 333.199 59.3794C334.711 57.8679 335.56 55.8178 335.56 53.6801Z" stroke="#94D6F1" stroke-width="2"/>
<path d="M109.15 84.83C109.15 82.6764 108.294 80.6111 106.772 79.0883C105.249 77.5655 103.183 76.71 101.03 76.71C99.9636 76.71 98.9077 76.92 97.9225 77.3281C96.9374 77.7361 96.0422 78.3342 95.2882 79.0883C94.5342 79.8423 93.9361 80.7374 93.528 81.7226C93.1199 82.7077 92.9099 83.7636 92.9099 84.83C92.9099 85.8963 93.1199 86.9522 93.528 87.9373C93.9361 88.9225 94.5342 89.8176 95.2882 90.5717C96.0422 91.3257 96.9374 91.9238 97.9225 92.3318C98.9077 92.7399 99.9636 92.95 101.03 92.95C103.183 92.95 105.249 92.0945 106.772 90.5717C108.294 89.0489 109.15 86.9835 109.15 84.83Z" stroke="#94D6F1" stroke-width="2"/>
<path d="M357.58 84.86C357.58 82.7038 356.724 80.6359 355.199 79.1112C353.674 77.5865 351.606 76.73 349.45 76.73C347.294 76.73 345.226 77.5865 343.701 79.1112C342.177 80.6359 341.32 82.7038 341.32 84.86C341.32 87.0162 342.177 89.0841 343.701 90.6088C345.226 92.1334 347.294 92.99 349.45 92.99C351.606 92.99 353.674 92.1334 355.199 90.6088C356.724 89.0841 357.58 87.0162 357.58 84.86Z" stroke="#94D6F1" stroke-width="2"/>
<path d="M350.02 176.09C354.26 188.78 368.17 190.29 379.24 187.88C379.64 187.793 379.833 187.543 379.82 187.13L379.3 173.65C379.28 173.21 379.053 173.04 378.62 173.14C373.96 174.2 368.45 173.79 368.49 167.66C368.583 149.067 368.57 130.453 368.45 111.82C368.45 111.467 368.273 111.287 367.92 111.28L349.56 111.12C349.207 111.12 349.03 111.297 349.03 111.65C348.963 129.777 348.97 147.893 349.05 166C349.07 170.84 349.393 174.203 350.02 176.09Z" stroke="#94D6F1" stroke-width="2"/>
<path d="M404.57 151.01C404.522 151.057 404.462 151.09 404.396 151.103C404.33 151.116 404.262 151.109 404.2 151.083C404.138 151.058 404.085 151.014 404.048 150.958C404.01 150.903 403.99 150.837 403.99 150.77L404.02 111.54C404.02 111.45 403.984 111.363 403.92 111.3C403.857 111.236 403.77 111.2 403.68 111.2L384.84 111.47C384.75 111.47 384.663 111.506 384.6 111.57C384.536 111.633 384.5 111.72 384.5 111.81V187.83C384.5 187.92 384.536 188.007 384.6 188.07C384.663 188.134 384.75 188.17 384.84 188.17H403.69C403.78 188.17 403.867 188.134 403.93 188.07C403.994 188.007 404.03 187.92 404.03 187.83L404.05 174.58C404.048 174.491 404.08 174.405 404.14 174.34L409.59 168.63C409.623 168.595 409.664 168.568 409.708 168.549C409.753 168.531 409.801 168.523 409.85 168.525C409.898 168.527 409.945 168.539 409.988 168.56C410.031 168.582 410.07 168.612 410.1 168.65L425.65 188.04C425.681 188.079 425.72 188.112 425.765 188.134C425.81 188.157 425.86 188.169 425.91 188.17H448.82C448.884 188.17 448.947 188.153 449.001 188.119C449.056 188.086 449.1 188.037 449.128 187.98C449.156 187.922 449.167 187.858 449.161 187.794C449.154 187.731 449.13 187.67 449.09 187.62L424.44 156.18C424.392 156.115 424.368 156.035 424.374 155.954C424.379 155.874 424.413 155.798 424.47 155.74L446.96 132.5C447.007 132.452 447.04 132.392 447.053 132.326C447.066 132.26 447.059 132.192 447.033 132.13C447.008 132.068 446.964 132.015 446.908 131.978C446.853 131.94 446.787 131.92 446.72 131.92H424.24C424.15 131.92 424.064 131.956 424 132.02L404.57 151.01Z" stroke="#94D6F1" stroke-width="2"/>
<path d="M258.12 131.63C264.273 132.917 270.117 135.053 275.65 138.04C275.95 138.207 276.17 138.133 276.31 137.82L282.68 123.9C282.787 123.673 282.73 123.497 282.51 123.37C260.93 110.92 234.09 111.46 212.35 122.98C212.196 123.065 212.08 123.205 212.024 123.372C211.969 123.538 211.978 123.72 212.05 123.88L218.35 137.83C218.382 137.899 218.427 137.961 218.484 138.012C218.541 138.063 218.607 138.101 218.679 138.126C218.751 138.15 218.827 138.159 218.903 138.153C218.979 138.147 219.053 138.126 219.12 138.09C224.693 135.097 230.58 132.96 236.78 131.68C236.809 131.676 236.838 131.677 236.866 131.685C236.894 131.692 236.92 131.706 236.942 131.724C236.964 131.742 236.981 131.764 236.993 131.79C237.005 131.815 237.011 131.842 237.01 131.87L237.02 187.53C237.02 187.7 237.088 187.863 237.21 187.983C237.332 188.103 237.498 188.17 237.67 188.17H257C257.133 188.17 257.26 188.117 257.353 188.024C257.447 187.93 257.5 187.803 257.5 187.67V132.13C257.5 131.71 257.707 131.543 258.12 131.63Z" stroke="#94D6F1" stroke-width="2"/>
<path d="M21.64 171.66C21.5948 171.659 21.5506 171.646 21.5118 171.623C21.473 171.6 21.4409 171.567 21.4187 171.528C21.3965 171.488 21.3849 171.444 21.3851 171.399C21.3854 171.353 21.3974 171.309 21.42 171.27L21.72 170.76C21.7446 170.721 21.7584 170.676 21.76 170.63L21.41 115.93C21.41 115.861 21.3826 115.795 21.3338 115.746C21.2851 115.697 21.219 115.67 21.15 115.67H1.25999C1.19104 115.67 1.12492 115.697 1.07616 115.746C1.0274 115.795 1 115.861 1 115.93V187.91C1 187.979 1.0274 188.045 1.07616 188.094C1.12492 188.143 1.19104 188.17 1.25999 188.17H55.84C55.909 188.17 55.9751 188.143 56.0238 188.094C56.0726 188.045 56.1 187.979 56.1 187.91L55.95 172.14C55.95 172.071 55.9226 172.005 55.8738 171.956C55.8251 171.907 55.759 171.88 55.69 171.88L21.64 171.66Z" stroke="#94D6F1" stroke-width="2"/>
<path d="M124.2 168.71C124.29 188.78 145.64 192.24 160.05 186.15C160.323 186.03 160.41 185.83 160.31 185.55L155.82 172.79C155.793 172.71 155.75 172.637 155.692 172.576C155.635 172.515 155.564 172.467 155.486 172.435C155.408 172.404 155.324 172.39 155.24 172.394C155.156 172.398 155.074 172.421 155 172.46C150.82 174.58 144 174.39 143.77 168.66C143.643 165.573 143.663 159.067 143.83 149.14C143.83 148.807 143.997 148.64 144.33 148.64L155.96 148.72C156.307 148.727 156.483 148.557 156.49 148.21L156.53 134.36C156.53 134.007 156.353 133.833 156 133.84L144.26 134.17C144.194 134.173 144.128 134.162 144.066 134.139C144.005 134.115 143.948 134.079 143.9 134.034C143.853 133.988 143.815 133.933 143.789 133.872C143.763 133.811 143.75 133.746 143.75 133.68V120.17C143.75 119.971 143.671 119.78 143.53 119.64C143.39 119.499 143.199 119.42 143 119.42H124.81C124.497 119.42 124.337 119.577 124.33 119.89C124.177 136.223 124.133 152.497 124.2 168.71Z" stroke="#94D6F1" stroke-width="2"/>
<path d="M78.17 167.88C77.9233 167.433 78.05 167.163 78.55 167.07L116.8 159.67C117.058 159.62 117.289 159.478 117.451 159.273C117.613 159.067 117.694 158.81 117.68 158.55C116.09 124.44 67.36 121.94 58.22 151.47C56.5267 156.95 56.49 162.467 58.11 168.02C64.61 190.34 97.75 195.79 113.5 180.25C113.713 180.03 113.717 179.81 113.51 179.59L103.92 169.53C103.79 169.395 103.613 169.314 103.427 169.304C103.241 169.295 103.059 169.358 102.92 169.48C96.45 175.01 83.03 176.59 78.17 167.88Z" stroke="#94D6F1" stroke-width="2"/>
<path d="M195 169.77C195.847 172.377 194.897 173.903 192.15 174.35C183.477 175.77 175.303 174.377 167.63 170.17C167.543 170.121 167.447 170.091 167.348 170.082C167.248 170.073 167.148 170.085 167.054 170.117C166.96 170.149 166.873 170.201 166.8 170.268C166.727 170.336 166.669 170.418 166.63 170.51L161.53 182.46C161.422 182.709 161.418 182.991 161.517 183.244C161.616 183.497 161.811 183.7 162.06 183.81C175.03 189.53 208.37 194.4 213.06 173.87C215.2 164.56 209.8 157.25 200.56 155.34C194.53 154.09 182.58 152.87 180.62 149.86C180.453 149.6 180.397 149.317 180.45 149.01C181.85 141.05 200.58 146.36 205.26 148.82C205.573 148.987 205.803 148.907 205.95 148.58L211.41 136.37C211.643 135.843 211.493 135.477 210.96 135.27C198.1 130.2 168.43 126.85 162.97 144.97C160.01 154.82 165.61 163.14 175.8 165.12C182.6 166.44 189.58 166.76 194.47 169.16C194.593 169.22 194.704 169.305 194.795 169.41C194.886 169.515 194.955 169.637 195 169.77Z" stroke="#94D6F1" stroke-width="2"/>
<path d="M318.62 136.05C311.227 130.843 303.1 129.737 294.24 132.73C269.28 141.15 270.18 180.3 295.7 187.64C304.13 190.07 313.09 189.17 319.52 183.09C319.581 183.032 319.657 182.993 319.739 182.979C319.822 182.965 319.907 182.975 319.984 183.009C320.062 183.043 320.128 183.099 320.175 183.17C320.223 183.241 320.249 183.325 320.25 183.41V186.77C320.25 187.67 320.7 188.113 321.6 188.1L338.37 187.93C338.623 187.93 338.75 187.803 338.75 187.55V132.42C338.75 132.087 338.583 131.92 338.25 131.92H319.92C319.527 131.92 319.31 132.113 319.27 132.5L318.94 135.91C318.913 136.137 318.807 136.183 318.62 136.05Z" stroke="#94D6F1" stroke-width="2"/>
<path d="M130.98 274.3C130.905 274.322 130.824 274.32 130.75 274.295C130.676 274.27 130.611 274.222 130.565 274.158C130.519 274.095 130.494 274.018 130.493 273.94C130.492 273.861 130.515 273.785 130.56 273.72C132.68 270.647 134.437 267.373 135.83 263.9C138.95 256.11 140.55 249.82 134.22 243.72C123.72 233.58 114.983 221.893 108.01 208.66C103.63 200.34 88.3199 206.23 94.5799 218.2C101.613 231.66 110.617 243.753 121.59 254.48C121.863 254.747 121.913 255.053 121.74 255.4C117.653 263.567 111.837 272.84 104.29 283.22C99.8299 289.35 104.98 299.07 112.51 296.72C126.243 292.42 140.13 288.69 154.17 285.53C158.34 284.59 163.55 283.39 167.65 285.11C199.6 298.49 234.72 300.67 267.9 290.55C307.1 278.583 336.553 254.313 356.26 217.74C361.94 207.21 347.88 199.07 341.55 210.54C307.83 271.65 237.06 296.56 172.42 269.51C162.12 265.21 141.51 271.25 130.98 274.3Z" stroke="#94D6F1" stroke-width="2"/>
<path d="M76.7301 157.05L98.9101 152.9C98.9154 152.899 98.9204 152.897 98.9249 152.894C98.9293 152.89 98.9331 152.886 98.9359 152.882C98.9387 152.877 98.9405 152.872 98.9412 152.866C98.9419 152.861 98.9415 152.855 98.9401 152.85L98.93 152.79C98.694 151.526 98.176 150.328 97.4054 149.263C96.6349 148.198 95.627 147.289 94.4393 146.586C93.2516 145.883 91.9073 145.4 90.4833 145.166C89.0593 144.932 87.5835 144.95 86.1401 145.22L85.8601 145.27C84.4167 145.54 83.0341 146.056 81.7911 146.789C80.5481 147.522 79.4691 148.458 78.6157 149.543C77.7623 150.627 77.1513 151.84 76.8174 153.111C76.4836 154.382 76.4335 155.686 76.6701 156.95L76.6901 157.02C76.6923 157.029 76.6975 157.037 76.7048 157.042C76.7121 157.048 76.721 157.05 76.7301 157.05Z" stroke="#94D6F1" stroke-width="2"/>
<path d="M307.373 173.526C308.948 173.562 310.516 173.247 311.987 172.599C313.458 171.952 314.803 170.984 315.946 169.751C317.088 168.519 318.006 167.045 318.646 165.415C319.286 163.786 319.637 162.031 319.677 160.252C319.758 156.659 318.573 153.185 316.38 150.594C314.188 148.002 311.169 146.506 307.987 146.433C306.412 146.398 304.844 146.713 303.373 147.36C301.902 148.008 300.557 148.976 299.414 150.209C298.272 151.441 297.354 152.915 296.714 154.544C296.074 156.174 295.724 157.929 295.683 159.708C295.602 163.3 296.787 166.775 298.98 169.366C301.172 171.958 304.191 173.454 307.373 173.526Z" stroke="#94D6F1" stroke-width="2"/>
<path d="M225.28 17.36C229.798 17.36 233.46 13.6977 233.46 9.17999C233.46 4.6623 229.798 1 225.28 1C220.762 1 217.1 4.6623 217.1 9.17999C217.1 13.6977 220.762 17.36 225.28 17.36Z" fill="#28ADE3"/>
<path d="M187.59 22.4499C192.08 22.4499 195.72 18.81 195.72 14.3199C195.72 9.82986 192.08 6.18994 187.59 6.18994C183.1 6.18994 179.46 9.82986 179.46 14.3199C179.46 18.81 183.1 22.4499 187.59 22.4499Z" fill="#28ADE3"/>
<path d="M263.03 22.46C267.509 22.46 271.14 18.829 271.14 14.35C271.14 9.87095 267.509 6.23999 263.03 6.23999C258.551 6.23999 254.92 9.87095 254.92 14.35C254.92 18.829 258.551 22.46 263.03 22.46Z" fill="#28ADE3"/>
<path d="M152.57 37.7199C157.071 37.7199 160.72 34.071 160.72 29.5699C160.72 25.0688 157.071 21.4199 152.57 21.4199C148.069 21.4199 144.42 25.0688 144.42 29.5699C144.42 34.071 148.069 37.7199 152.57 37.7199Z" fill="#28ADE3"/>
<path d="M297.97 37.7999C302.488 37.7999 306.15 34.1376 306.15 29.6199C306.15 25.1022 302.488 21.4399 297.97 21.4399C293.452 21.4399 289.79 25.1022 289.79 29.6199C289.79 34.1376 293.452 37.7999 297.97 37.7999Z" fill="#28ADE3"/>
<path d="M123.08 61.7698C127.559 61.7698 131.19 58.1388 131.19 53.6598C131.19 49.1808 127.559 45.5498 123.08 45.5498C118.601 45.5498 114.97 49.1808 114.97 53.6598C114.97 58.1388 118.601 61.7698 123.08 61.7698Z" fill="#28ADE3"/>
<path d="M327.5 61.7399C331.951 61.7399 335.56 58.1313 335.56 53.6799C335.56 49.2285 331.951 45.6199 327.5 45.6199C323.049 45.6199 319.44 49.2285 319.44 53.6799C319.44 58.1313 323.049 61.7399 327.5 61.7399Z" fill="#28ADE3"/>
<path d="M101.03 92.95C105.514 92.95 109.15 89.3145 109.15 84.83C109.15 80.3454 105.514 76.71 101.03 76.71C96.5454 76.71 92.9099 80.3454 92.9099 84.83C92.9099 89.3145 96.5454 92.95 101.03 92.95Z" fill="#28ADE3"/>
<path d="M349.45 92.99C353.94 92.99 357.58 89.3501 357.58 84.86C357.58 80.3699 353.94 76.73 349.45 76.73C344.96 76.73 341.32 80.3699 341.32 84.86C341.32 89.3501 344.96 92.99 349.45 92.99Z" fill="#28ADE3"/>
<path d="M379.24 187.88C368.17 190.29 354.26 188.78 350.02 176.09C349.393 174.203 349.07 170.84 349.05 166C348.97 147.893 348.963 129.777 349.03 111.65C349.03 111.297 349.207 111.12 349.56 111.12L367.92 111.28C368.273 111.287 368.45 111.467 368.45 111.82C368.57 130.453 368.583 149.067 368.49 167.66C368.45 173.79 373.96 174.2 378.62 173.14C379.053 173.04 379.28 173.21 379.3 173.65L379.82 187.13C379.833 187.543 379.64 187.793 379.24 187.88Z" fill="#28ADE3"/>
<path d="M404.57 151.01L424 132.02C424.064 131.956 424.15 131.92 424.24 131.92H446.72C446.787 131.92 446.853 131.94 446.908 131.978C446.964 132.015 447.008 132.068 447.033 132.13C447.059 132.192 447.066 132.26 447.053 132.326C447.04 132.392 447.007 132.452 446.96 132.5L424.47 155.74C424.413 155.798 424.379 155.874 424.374 155.954C424.368 156.035 424.392 156.115 424.44 156.18L449.09 187.62C449.13 187.67 449.154 187.731 449.161 187.794C449.167 187.858 449.156 187.922 449.128 187.98C449.1 188.037 449.056 188.086 449.001 188.119C448.947 188.153 448.884 188.17 448.82 188.17H425.91C425.86 188.169 425.81 188.157 425.765 188.134C425.72 188.112 425.681 188.079 425.65 188.04L410.1 168.65C410.07 168.612 410.031 168.582 409.988 168.56C409.945 168.539 409.898 168.527 409.85 168.525C409.801 168.523 409.753 168.531 409.708 168.549C409.664 168.568 409.623 168.595 409.59 168.63L404.14 174.34C404.08 174.405 404.048 174.491 404.05 174.58L404.03 187.83C404.03 187.92 403.994 188.007 403.93 188.07C403.867 188.134 403.78 188.17 403.69 188.17H384.84C384.75 188.17 384.663 188.134 384.6 188.07C384.536 188.007 384.5 187.92 384.5 187.83V111.81C384.5 111.72 384.536 111.633 384.6 111.57C384.663 111.506 384.75 111.47 384.84 111.47L403.68 111.2C403.77 111.2 403.857 111.236 403.92 111.3C403.984 111.363 404.02 111.45 404.02 111.54L403.99 150.77C403.99 150.837 404.01 150.903 404.048 150.958C404.085 151.014 404.138 151.058 404.2 151.083C404.262 151.109 404.33 151.116 404.396 151.103C404.462 151.09 404.522 151.057 404.57 151.01Z" fill="#28ADE3"/>
<path d="M257.5 132.13V187.67C257.5 187.802 257.447 187.93 257.353 188.023C257.26 188.117 257.133 188.17 257 188.17H237.67C237.498 188.17 237.332 188.102 237.21 187.982C237.088 187.862 237.02 187.7 237.02 187.53L237.01 131.87C237.011 131.842 237.005 131.815 236.993 131.789C236.981 131.764 236.964 131.742 236.942 131.724C236.92 131.705 236.894 131.692 236.866 131.685C236.838 131.677 236.809 131.675 236.78 131.68C230.58 132.96 224.693 135.097 219.12 138.09C219.053 138.125 218.979 138.147 218.903 138.153C218.827 138.159 218.751 138.15 218.679 138.125C218.607 138.101 218.541 138.062 218.484 138.011C218.427 137.961 218.382 137.899 218.35 137.83L212.05 123.88C211.978 123.72 211.969 123.538 212.024 123.371C212.08 123.205 212.196 123.065 212.35 122.98C234.09 111.46 260.93 110.92 282.51 123.37C282.73 123.497 282.787 123.673 282.68 123.9L276.31 137.82C276.17 138.133 275.95 138.207 275.65 138.04C270.117 135.053 264.273 132.917 258.12 131.63C257.707 131.543 257.5 131.71 257.5 132.13Z" fill="#28ADE3"/>
<path d="M21.64 171.66L55.69 171.88C55.759 171.88 55.8251 171.907 55.8738 171.956C55.9226 172.005 55.95 172.071 55.95 172.14L56.1 187.91C56.1 187.979 56.0726 188.045 56.0238 188.094C55.9751 188.143 55.909 188.17 55.84 188.17H1.25999C1.19104 188.17 1.12492 188.143 1.07616 188.094C1.0274 188.045 1 187.979 1 187.91V115.93C1 115.861 1.0274 115.795 1.07616 115.746C1.12492 115.697 1.19104 115.67 1.25999 115.67H21.15C21.219 115.67 21.2851 115.697 21.3338 115.746C21.3826 115.795 21.41 115.861 21.41 115.93L21.76 170.63C21.7584 170.676 21.7446 170.721 21.72 170.76L21.42 171.27C21.3974 171.309 21.3854 171.353 21.3851 171.399C21.3849 171.444 21.3965 171.488 21.4187 171.528C21.4409 171.567 21.473 171.6 21.5118 171.623C21.5506 171.646 21.5948 171.659 21.64 171.66Z" fill="#28ADE3"/>
<path d="M160.05 186.15C145.64 192.24 124.29 188.78 124.2 168.71C124.133 152.497 124.177 136.223 124.33 119.89C124.337 119.577 124.497 119.42 124.81 119.42H143C143.199 119.42 143.39 119.499 143.53 119.64C143.671 119.78 143.75 119.971 143.75 120.17V133.68C143.75 133.746 143.763 133.811 143.789 133.872C143.815 133.933 143.853 133.988 143.9 134.034C143.948 134.079 144.005 134.115 144.066 134.139C144.128 134.162 144.194 134.173 144.26 134.17L156 133.84C156.353 133.833 156.53 134.007 156.53 134.36L156.49 148.21C156.483 148.557 156.307 148.727 155.96 148.72L144.33 148.64C143.997 148.64 143.83 148.807 143.83 149.14C143.663 159.067 143.643 165.573 143.77 168.66C144 174.39 150.82 174.58 155 172.46C155.074 172.421 155.156 172.398 155.24 172.394C155.324 172.39 155.408 172.404 155.486 172.435C155.564 172.467 155.635 172.515 155.692 172.576C155.75 172.637 155.793 172.71 155.82 172.79L160.31 185.55C160.41 185.83 160.323 186.03 160.05 186.15Z" fill="#28ADE3"/>
<path d="M78.17 167.88C83.03 176.59 96.45 175.01 102.92 169.48C103.059 169.358 103.241 169.295 103.427 169.304C103.613 169.314 103.79 169.395 103.92 169.53L113.51 179.59C113.717 179.81 113.713 180.03 113.5 180.25C97.75 195.79 64.61 190.34 58.11 168.02C56.49 162.467 56.5267 156.95 58.22 151.47C67.36 121.94 116.09 124.44 117.68 158.55C117.694 158.81 117.613 159.067 117.451 159.273C117.289 159.478 117.058 159.62 116.8 159.67L78.55 167.07C78.05 167.163 77.9233 167.433 78.17 167.88ZM76.73 157.05L98.91 152.9C98.9153 152.899 98.9204 152.897 98.9248 152.893C98.9292 152.89 98.933 152.886 98.9358 152.881C98.9386 152.877 98.9404 152.872 98.9411 152.866C98.9419 152.861 98.9415 152.855 98.94 152.85L98.93 152.79C98.694 151.526 98.1759 150.327 97.4054 149.263C96.6348 148.198 95.6269 147.288 94.4392 146.586C93.2515 145.883 91.9072 145.4 90.4832 145.166C89.0592 144.932 87.5834 144.95 86.14 145.22L85.86 145.27C84.4167 145.54 83.034 146.056 81.791 146.789C80.548 147.522 79.469 148.458 78.6156 149.542C77.7623 150.627 77.1512 151.839 76.8174 153.11C76.4835 154.381 76.4334 155.686 76.67 156.95L76.69 157.02C76.6923 157.029 76.6975 157.037 76.7047 157.042C76.712 157.047 76.7209 157.05 76.73 157.05Z" fill="#28ADE3"/>
<path d="M194.47 169.16C189.58 166.76 182.6 166.44 175.8 165.12C165.61 163.14 160.01 154.82 162.97 144.97C168.43 126.85 198.1 130.2 210.96 135.27C211.493 135.477 211.643 135.843 211.41 136.37L205.95 148.58C205.803 148.907 205.573 148.987 205.26 148.82C200.58 146.36 181.85 141.05 180.45 149.01C180.397 149.317 180.453 149.6 180.62 149.86C182.58 152.87 194.53 154.09 200.56 155.34C209.8 157.25 215.2 164.56 213.06 173.87C208.37 194.4 175.03 189.53 162.06 183.81C161.811 183.7 161.616 183.497 161.517 183.244C161.418 182.991 161.422 182.709 161.53 182.46L166.63 170.51C166.669 170.418 166.727 170.336 166.8 170.268C166.873 170.201 166.96 170.149 167.054 170.117C167.148 170.085 167.248 170.073 167.348 170.082C167.447 170.091 167.543 170.121 167.63 170.17C175.303 174.377 183.477 175.77 192.15 174.35C194.897 173.903 195.847 172.377 195 169.77C194.955 169.637 194.886 169.515 194.795 169.41C194.704 169.305 194.593 169.22 194.47 169.16Z" fill="#28ADE3"/>
<path d="M318.94 135.91L319.27 132.5C319.31 132.113 319.527 131.92 319.92 131.92H338.25C338.583 131.92 338.75 132.087 338.75 132.42V187.55C338.75 187.803 338.623 187.93 338.37 187.93L321.6 188.1C320.7 188.113 320.25 187.67 320.25 186.77V183.41C320.249 183.325 320.223 183.241 320.175 183.17C320.128 183.099 320.062 183.043 319.984 183.009C319.907 182.975 319.822 182.964 319.739 182.979C319.657 182.993 319.581 183.032 319.52 183.09C313.09 189.17 304.13 190.07 295.7 187.64C270.18 180.3 269.28 141.15 294.24 132.73C303.1 129.737 311.227 130.843 318.62 136.05C318.807 136.183 318.913 136.137 318.94 135.91ZM307.373 173.526C308.948 173.562 310.516 173.247 311.987 172.599C313.458 171.952 314.803 170.984 315.946 169.751C317.088 168.519 318.006 167.045 318.646 165.415C319.286 163.786 319.637 162.031 319.677 160.252C319.759 156.659 318.573 153.185 316.381 150.594C314.188 148.002 311.169 146.506 307.988 146.433C306.412 146.398 304.844 146.713 303.373 147.36C301.902 148.008 300.557 148.976 299.414 150.209C298.272 151.441 297.354 152.914 296.714 154.544C296.074 156.174 295.724 157.929 295.683 159.708C295.602 163.3 296.787 166.775 298.98 169.366C301.172 171.958 304.191 173.454 307.373 173.526Z" fill="#28ADE3"/>
<path d="M130.98 274.3C141.51 271.25 162.12 265.21 172.42 269.51C237.06 296.56 307.83 271.65 341.55 210.54C347.88 199.07 361.94 207.21 356.26 217.74C336.553 254.313 307.1 278.583 267.9 290.55C234.72 300.67 199.6 298.49 167.65 285.11C163.55 283.39 158.34 284.59 154.17 285.53C140.13 288.69 126.243 292.42 112.51 296.72C104.98 299.07 99.8299 289.35 104.29 283.22C111.837 272.84 117.653 263.567 121.74 255.4C121.913 255.053 121.863 254.747 121.59 254.48C110.617 243.753 101.613 231.66 94.5799 218.2C88.3199 206.23 103.63 200.34 108.01 208.66C114.983 221.893 123.72 233.58 134.22 243.72C140.55 249.82 138.95 256.11 135.83 263.9C134.437 267.373 132.68 270.647 130.56 273.72C130.515 273.785 130.492 273.861 130.493 273.94C130.494 274.018 130.519 274.095 130.565 274.158C130.611 274.222 130.676 274.27 130.75 274.295C130.824 274.32 130.905 274.322 130.98 274.3Z" fill="#28ADE3"/>
</svg>
